<?xml version="1.0" encoding="utf-8"?>
<!-- Generator: Adobe Illustrator 22.0.1, SVG Export Plug-In . SVG Version: 6.00 Build 0)  -->
<svg version="1.1" id="Capa_1" xmlns="http://www.w3.org/2000/svg" xmlns:xlink="http://www.w3.org/1999/xlink" x="0px" y="0px"
	 width="600px" height="123.7px" viewBox="0 0 600 123.7" style="enable-background:new 0 0 600 123.7;" xml:space="preserve">
	 <style>
	 	g {
	 	fill: #fff;
	 	}
	 </style>
<g>
	<path d="M0,3.1h25.7c1.3,63.1,1.1,71.1,0.4,84.3h0.3C31,75.2,35.3,63.6,60.3,3.1h25.5c0,63.2-0.1,69.3-0.7,84.3h0.3
		c4.3-10.9,8.3-20.9,36.7-84.3h24.4L89.6,118.3H66.5c0.1-56.4,0.4-67.7,1.3-89.8h-0.3c-8.2,22.1-11.9,30.5-36.9,89.8H8.1L0,3.1z"/>
	<polygon points="238.2,23.5 177.1,23.5 172,47.7 228.1,47.7 223.8,68.1 167.6,68.1 161.3,97.9 225.2,97.9 220.8,118.3 133.4,118.3
		157.9,3.1 242.6,3.1 	"/>
	<path d="M261.9,82.8c-1.2,6.4-0.6,18.6,20.5,18.6c11.4,0,24.6-2.7,27.2-15c1.9-9-6.3-11.3-17.8-14.2L280,69.4
		c-17.7-4.3-34.8-8.5-29.4-33.8C253.3,22.6,265,0,302.4,0c35.3,0,39.8,23.1,37,37.2h-23.1c0.5-5.1,1.1-17.3-19.9-17.3
		c-9.2,0-20.8,3.4-23,13.8c-1.9,9,5.1,10.9,9.6,12l26.6,6.9c14.9,3.8,28,10.2,23.6,30.9c-7.4,34.6-43.3,37.7-53.4,37.7
		c-42,0-44.1-24.2-41.1-38.5H261.9z"/>
	<path d="M365.7,82.8c-1.2,6.4-0.6,18.6,20.4,18.6c11.4,0,24.6-2.7,27.2-15c1.9-9-6.2-11.3-17.8-14.2l-11.7-2.9
		c-17.7-4.3-34.8-8.5-29.4-33.8C357.1,22.6,368.8,0,406.2,0c35.3,0,39.8,23.1,37,37.2h-23.1c0.5-5.1,1.1-17.3-19.9-17.3
		c-9.1,0-20.8,3.4-23,13.8c-1.9,9,5.1,10.9,9.6,12l26.6,6.9c14.9,3.8,28,10.2,23.6,30.9c-7.4,34.6-43.3,37.7-53.4,37.7
		c-42,0-44.1-24.2-41.1-38.5H365.7z"/>
	<polygon points="461.7,117.3 449.9,117.3 461.9,60.7 473.8,60.7 	"/>
	<polygon points="519.4,60.7 530.4,60.7 518.4,117.3 506.5,117.3 492,76.9 491.8,76.9 483.2,117.3 472.2,117.3 484.3,60.7
		496.7,60.7 510.8,100.1 511,100.1 	"/>
	<path d="M573.9,79.2c-0.2-3.4-0.7-9.8-10.5-9.8c-5.7,0-14.8,3.8-18.2,19.8c-2.2,10.2-0.1,19.3,10,19.3c6.5,0,11.9-3.7,14.8-10.6
		h11.8c-5,12.3-14.8,20.9-29,20.9c-15.1,0-23.7-10.2-19.6-29.7c4.2-19.8,17.8-29.9,32.4-29.9c17,0,21.3,11.7,20.2,20.1H573.9z"/>
	<polygon points="597.6,117.3 585.7,117.3 588.2,105.8 600,105.8 	"/>
</g>
</svg>
