<?xml version="1.0" encoding="utf-8"?>
<!-- Generator: Adobe Illustrator 22.1.0, SVG Export Plug-In . SVG Version: 6.00 Build 0)  -->
<svg version="1.1" id="Capa_1" xmlns="http://www.w3.org/2000/svg" xmlns:xlink="http://www.w3.org/1999/xlink" x="0px" y="0px"
	 viewBox="0 0 450 247" style="enable-background:new 0 0 450 247;" xml:space="preserve">
<style type="text/css">
	.st0{fill:#4856C3;}
</style>
<g>
	<path class="st0" d="M142.5,0C103.6,0,0,69.7,0,172.7c0,95.6,102.1,78.4,130.2,55.8c31.5-25.4,53.7-65.7,57.6-133.2h42.6
		l-34.8,117.2h36.9l34.8-117.2h175.1l5.9-16.6H188.4C188.8,11.1,163.5,0,142.5,0z M158.4,64.8c-4,36.3-21.3,63-38.9,76.9
		c-20.2,15.9-73.3,22.5-69.3-29.9c4.2-56.4,58.3-94.6,86.2-94.6C150.4,17.2,162.8,24.9,158.4,64.8z"/>
	<polygon class="st0" points="405.1,114.9 387.7,114.9 342.4,197.2 339.3,197.2 334.3,114.9 322.4,114.9 285.6,114.9 256.6,212.4 
		293.4,212.4 315.4,138.5 320.1,212.4 356.2,212.4 399.5,133.9 376.1,212.4 413,212.4 442,114.9 413.9,114.9 	"/>
	<rect x="167.9" y="228.9" class="st0" width="11.6" height="1.1"/>
	<path class="st0" d="M191.3,229.9c0,0,0.1-0.1,0.1-0.2l-0.5-0.3l-0.2,0.1H186v0.9h1.1l-0.6,0.2c0.4,1.3,1,2.4,1.7,3.4
		c-0.8,0.8-1.8,1.4-2.8,1.8c0.2,0.2,0.4,0.6,0.5,0.8c1.1-0.4,2-1.1,2.9-1.9c0.8,0.9,1.8,1.5,2.9,1.9c0.1-0.2,0.4-0.6,0.5-0.8
		c-1.1-0.3-2-0.9-2.8-1.7C190.2,232.9,190.9,231.5,191.3,229.9z M188.7,233.3c-0.7-0.8-1.2-1.8-1.6-2.9h3.1
		C189.9,231.5,189.4,232.5,188.7,233.3z"/>
	<path class="st0" d="M183.4,230.8c0.2,0,0.2-0.1,0.2-0.2l-0.8-0.1v3.6h0.6V230.8z"/>
	<path class="st0" d="M186.7,223.2v2c0,1-0.1,2.2-1.1,3c0.2,0.1,0.5,0.4,0.6,0.6c1-1,1.3-2.5,1.3-3.7V224h2.1v2.6
		c0,0.8,0,1.5,0.9,1.5h0.6c1,0,1-0.7,1-2c-0.2-0.1-0.5-0.2-0.6-0.4c0,1,0,1.4-0.2,1.6c-0.1,0-0.2,0-0.3,0h-0.4
		c-0.3,0-0.3-0.1-0.3-0.6v-3.6L186.7,223.2L186.7,223.2z"/>
	<path class="st0" d="M183.8,228.3c-0.1-0.6-0.4-1.4-0.7-2l-0.5,0.2c0.3,0.7,0.6,1.5,0.7,2.1L183.8,228.3z"/>
	<path class="st0" d="M185.7,228.9l-0.6,0.1v-4.3h-2c0.2-0.5,0.4-1.2,0.5-1.6c0.1,0,0.2-0.1,0.3-0.2l-1-0.3
		c-0.1,0.6-0.3,1.5-0.5,2.1h-1.1v4.7l-0.9,0.1l0.3,1c0.1,0,0.1-0.1,0.2-0.2l0.5-0.1c0,1.8-0.1,4.1-1,5.7c0.2,0.1,0.5,0.3,0.6,0.5
		c0.9-1.7,1-4.4,1-6.3l2.4-0.3v5.6c0,0.2-0.1,0.3-0.2,0.3c-0.1,0-0.6,0-1.2,0c0.1,0.2,0.2,0.6,0.2,0.8c1.5,0,1.8-0.1,1.8-1.1v-5.7
		l0.6-0.1L185.7,228.9L185.7,228.9z M184.3,229.1l-2.4,0.3v-3.8h2.4V229.1z"/>
	<path class="st0" d="M198.3,231.4c-0.3-0.3-1.6-1.4-2.2-1.9c0.7-1.1,1.4-2.3,1.8-3.5c0.1,0,0.1-0.1,0.2-0.2l-0.6-0.4h-0.1H196v-2.6
		c0.2,0,0.2-0.1,0.3-0.2l-1.1-0.1v2.8h-2.1v0.9h3.8c-0.9,2.2-2.6,4.3-4.1,5.5c0.1,0.2,0.4,0.6,0.5,0.9c0.7-0.5,1.3-1.2,2-1.9v5.8
		h0.8v-6.2c0.6,0.6,1.4,1.4,1.8,1.8L198.3,231.4z"/>
	<path class="st0" d="M201.7,228.6h2.8v-1h-2.8V223c0.2,0,0.3-0.1,0.3-0.2l-1.1-0.1v4.9H198v1h2.8v6.5h-3.3v1h7.2v-1h-3V228.6z"/>
	<path class="st0" d="M213.2,225.1c0.2,0,0.2-0.1,0.2-0.2l-1-0.1v2.1h-4.9v0.9h4.9v5c0,0.3-0.1,0.3-0.9,0.3c-0.3,0-0.7,0-1,0
		c0.1,0.3,0.2,0.6,0.2,0.9c2,0,2.4,0,2.4-1.2v-5h1.9V227h-1.9v-1.9H213.2z"/>
	<path class="st0" d="M206,236.5h0.8v-0.7h8.9v0.7h0.9v-13.2H206V236.5z M206.8,224.3h8.9v10.6h-8.9V224.3z"/>
	<path class="st0" d="M209.2,228.7l-0.6,0.4c0.6,0.8,1.3,2.1,1.5,2.9l0.7-0.5C210.5,230.7,209.9,229.6,209.2,228.7z"/>
	<path class="st0" d="M221.6,224.3c-0.6-0.6-1.6-1.2-2.5-1.6l-0.5,0.7c0.9,0.4,2,1.1,2.5,1.7L221.6,224.3z"/>
	<path class="st0" d="M221.4,231.4c-0.1-0.1-0.1-0.1-0.6-0.6c-0.7,1.7-1.6,3.7-2.3,4.9l0.8,0.7c0,0,0.1-0.1,0.1-0.2
		c0,0,0-0.1-0.1-0.2C219.9,234.9,220.7,233,221.4,231.4z"/>
	<path class="st0" d="M218,227.7c0.9,0.4,2,1,2.5,1.5l0.5-0.9c-0.6-0.5-1.7-1.1-2.5-1.4L218,227.7z"/>
	<path class="st0" d="M225.9,226.1h3.1v-1h-3.1V223c0.2,0,0.3-0.1,0.3-0.3l-1.1-0.1v2.5h-3v1h3v2.9h-3.6v1h2.7
		c-0.4,1.5-1.1,3.4-1.6,4.7l-1,0.1l0.4,1.2c0.1,0,0.2-0.1,0.2-0.2c1.5-0.1,3.9-0.3,6.3-0.5c0.2,0.4,0.4,0.9,0.6,1.3l0.8-0.6
		c-0.4-1.2-1.5-3-2.5-4.3l-0.7,0.4c0.5,0.7,1,1.5,1.4,2.2c-1.5,0.1-3.1,0.2-4.4,0.3c0.6-1.3,1.2-3.1,1.6-4.3c0.2,0,0.3-0.1,0.3-0.2
		l-0.4-0.2h4.9v-1h-3.8v-2.8H225.9z"/>
	<path class="st0" d="M236.7,223.9v-0.4c0.2,0,0.2-0.1,0.2-0.2l-1.2-0.1c-0.1,2-0.1,9.4-5.3,12.5c0.3,0.2,0.5,0.5,0.7,0.8
		c3.4-2.1,4.7-6,5.2-9.1l0,0c0.6,3.1,2,7.2,5.4,9.1c0.1-0.3,0.4-0.6,0.6-0.9C237.6,233,236.8,226,236.7,223.9z"/>
	<polygon class="st0" points="244,226.1 251.8,226.1 251.8,233.4 243.9,233.4 243.9,234.4 251.8,234.4 251.8,235.3 252.7,235.3 
		252.7,225.1 244,225.1 	"/>
	<path class="st0" d="M259.5,226.3c-0.9-0.8-2.4-1.5-3.7-2l-0.4,0.9c1.3,0.5,2.8,1.3,3.7,2.1L259.5,226.3z"/>
	<path class="st0" d="M255.7,234.6l0.7,1.2c0.1-0.1,0.2-0.2,0.2-0.4c4.2-1.7,7.3-4.9,8.9-9c-0.3-0.2-0.6-0.4-0.8-0.6
		C263.1,230,260.2,233,255.7,234.6z"/>
	<path class="st0" d="M275.2,223.4c0.2,0,0.3-0.1,0.3-0.3l-1.2-0.1v3.4h-4.1v-2.8c0.2,0,0.3-0.2,0.3-0.3l-1.2-0.1v3.3h-2.5v1h2.5
		v3.7h0.9v-3.7h4.1v1.1c0,2.5-0.6,5.1-3.8,6.8c0.2,0.2,0.5,0.5,0.6,0.8c3.3-1.8,4-4.7,4-7.5v-1h2.6v-1h-2.6v-3.3H275.2z"/>
	<path class="st0" d="M279.6,230.1c0.2,0,0.3-0.1,0.4-0.3h10v-1.1h-10.5L279.6,230.1z"/>
	<path class="st0" d="M294.6,227.8v-4.4c0.2,0,0.3-0.1,0.3-0.3l-1.3-0.1v13h0.9v-7.5c1.4,0.7,3.1,1.6,4.4,2.4l0.5-1
		c-1.3-0.8-3.2-1.9-4.7-2.5L294.6,227.8z"/>
	<path class="st0" d="M311.4,222.2c-0.7,0-1.4,0.7-1.4,1.7c0,0.9,0.6,1.6,1.4,1.6s1.4-0.7,1.4-1.6S312.1,222.2,311.4,222.2z
		 M311.4,225c-0.5,0-1-0.5-1-1.1s0.4-1.2,1-1.2c0.5,0,1,0.5,1,1.2C312.3,224.4,311.9,225,311.4,225z"/>
	<path class="st0" d="M309.8,224.9h-8v1h7.7c-0.8,4.9-2.9,7.6-6.6,9.2c0.2,0.2,0.4,0.6,0.6,0.9c3.8-1.7,6-4.7,7-10.3
		c0.1,0,0.1-0.1,0.1-0.1L309.8,224.9L309.8,224.9z"/>
	<path class="st0" d="M314.5,235h0.9v-1h6.9v1h0.9v-9.9h-8.7L314.5,235L314.5,235z M315.3,226.1h6.9v6.9h-6.9V226.1z"/>
	<path class="st0" d="M330.3,225h4.5v-1h-8.1v1h2.7v3.7h-3.6v1h3.6v3.4c0,1.4,0.5,2.3,2.1,2.3h2.4c0.4,0,1.1,0,1.5-0.1
		c0-0.2,0-0.7,0-1c-0.4,0.1-1.1,0.1-1.5,0.1h-2.3c-0.9,0-1.2-0.5-1.2-1.3v-3.4h5.7v-1h-5.7V225H330.3z"/>
	<path class="st0" d="M338,230.1c0.2,0,0.3-0.1,0.4-0.3h10v-1.1H338V230.1z"/>
	<path class="st0" d="M358.4,225.2h-4.2c0.2-0.5,0.5-1.3,0.7-1.8c0.2,0,0.3,0,0.3-0.2l-1.2-0.3c-0.8,2.6-2.3,5.3-3.9,6.8
		c0.2,0.2,0.5,0.5,0.7,0.7c1.1-1.1,2.1-2.6,2.9-4.1h4.2c-0.3,1.4-0.9,2.7-1.5,3.9c-1-0.6-1.9-1.1-2.8-1.5l-0.5,0.8
		c0.9,0.4,1.8,1,2.8,1.6c-1.1,1.8-2.6,3.3-4.4,4.3c0.2,0.2,0.6,0.5,0.7,0.8c1.9-1.1,3.4-2.6,4.5-4.5c0.5,0.4,1.2,0.9,1.6,1.3l0.5-1
		c-0.5-0.4-1.1-0.9-1.6-1.2c0.8-1.4,1.4-3.1,1.8-5c0.1,0,0.1-0.1,0.1-0.2L358.4,225.2L358.4,225.2z"/>
	<path class="st0" d="M361.6,230.1c0.2,0,0.3-0.1,0.4-0.3h10v-1.1h-10.5L361.6,230.1z"/>
	<path class="st0" d="M381.4,225c0.1,0,0.1-0.1,0.1-0.1l-0.7-0.6l-0.2,0.1H374v1h6.2c-1.1,3.3-3.8,7.4-7.2,9.7
		c0.2,0.2,0.5,0.6,0.7,0.8c1.8-1.2,3.7-3.4,4.8-5c1.3,1.2,3.3,3.5,4.4,5l0.8-0.7c-1.2-1.6-3.3-3.8-4.6-5.1
		C380,228.5,380.9,226.7,381.4,225z"/>
	<path class="st0" d="M383.1,225.2c-0.3-0.7-0.9-1.7-1.4-2.3l-0.5,0.4c0.5,0.6,1.1,1.6,1.4,2.3L383.1,225.2z"/>
	<path class="st0" d="M382.7,222.6c0.4,0.5,1.1,1.6,1.4,2.3l0.5-0.4c-0.3-0.7-1-1.7-1.4-2.3L382.7,222.6z"/>
	<path class="st0" d="M391.8,230.6h-0.2h-1.2c0-0.4,0-0.9,0.1-1.3c0.1,0,0.2-0.1,0.2-0.2l-1-0.1c0,0.5,0,1.1-0.1,1.6h-1.3v0.8h1.3
		c-0.2,1.9-0.6,3.5-1.6,4.5c0.2,0.1,0.4,0.4,0.5,0.6c1.2-1.2,1.6-3.1,1.9-5.1h1.1c-0.1,2.8-0.2,3.9-0.4,4.1
		c-0.1,0.1-0.2,0.2-0.3,0.2c-0.2,0-0.4,0-0.8,0c0.1,0.2,0.2,0.6,0.2,0.8c1.2,0,1.3-0.1,1.5-0.4c0.4-0.7,0.5-5.2,0.5-5.5L391.8,230.6
		z"/>
	<path class="st0" d="M389.1,226.7h-1.5v-3.8c0.2,0,0.2-0.1,0.2-0.2l-1.1-0.1v4h-1.6v0.9h1.6v8.9h0.8v-8.9h1.5v-0.8H389.1z"/>
	<path class="st0" d="M389,228.2c0.1,0.2,0.3,0.5,0.4,0.7c1.9-0.8,2.8-2.1,3.2-3.7h2.5c-0.1,1.6-0.3,2.3-0.4,2.5
		c-0.1,0.1-0.2,0.1-0.4,0.1c-0.2,0-0.7,0-1.2-0.1c0.1,0.2,0.2,0.6,0.2,0.9c0.3,0,0.6,0,0.8,0c1.4,0,1.6-0.1,1.8-4c0-0.1,0-0.2,0-0.3
		l-0.5-0.1h-0.2h-2.5c0.1-0.4,0.1-0.9,0.1-1.4c0.2,0,0.2-0.1,0.3-0.2l-1-0.1c0,0.6-0.1,1.2-0.2,1.7h-2.5v0.9h2.3
		C391.4,226.5,390.6,227.5,389,228.2z"/>
	<path class="st0" d="M394.6,230.6c0-0.4,0.1-0.9,0.1-1.3c0.1,0,0.2-0.1,0.2-0.2l-1-0.1c0,0.5,0,1.1-0.1,1.6h-1.3v0.8h1.2
		c-0.2,1.9-0.6,3.4-1.7,4.5c0.2,0.1,0.4,0.4,0.5,0.6c1.2-1.2,1.7-3.1,1.9-5.1h1.2c-0.1,2.8-0.1,3.9-0.3,4.1
		c-0.1,0.2-0.2,0.2-0.3,0.2c-0.1,0-0.5,0-0.9-0.1c0.1,0.2,0.2,0.6,0.2,0.9c1.3,0,1.4-0.1,1.6-0.4c0.4-0.6,0.4-5.2,0.4-5.5h-0.4
		H394.6z"/>
	<path class="st0" d="M404,222.9c0.1,0,0.2-0.1,0.3-0.2l-1.3-0.1c-1,2-3.2,4.3-5.4,5.5c0.2,0.2,0.4,0.6,0.5,0.8
		c2.2-1.3,4.3-3.4,5.3-5.3c1.2,2,3.5,4.1,5.5,5.2c0.1-0.3,0.3-0.7,0.5-0.9C407.5,226.9,405.2,224.9,404,222.9z"/>
	<rect x="400.4" y="227.4" class="st0" width="6.1" height="0.9"/>
	<path class="st0" d="M398.3,231.2h3.4c-0.4,1.2-1,2.6-1.5,3.7c-0.7,0-1.3,0.1-1.8,0.1l0.3,1.2c0.1,0,0.2-0.1,0.2-0.2
		c2-0.1,5.2-0.2,8.3-0.5c0.3,0.4,0.5,0.7,0.6,1.1l0.7-0.6c-0.6-1.1-1.8-2.8-3-4l-0.7,0.5c0.6,0.7,1.3,1.5,1.8,2.2
		c-1.9,0.1-3.8,0.1-5.5,0.2c0.5-1.1,1.1-2.5,1.5-3.5c0.2,0,0.2-0.1,0.3-0.2l-0.1-0.1h6v-1h-10.5L398.3,231.2L398.3,231.2z"/>
	<path class="st0" d="M209.9,66.8c3.8,0,6.9-3.3,6.9-10c0-5.7-2.6-9.6-6.7-9.6c-4,0-6.9,3.8-6.9,10
		C203.1,63.1,205.9,66.8,209.9,66.8z M210,49c3.4,0,5,4.2,5,8c0,4.3-1.7,8.1-5,8.1s-5-3.9-5-8C204.9,53.1,206.5,49,210,49z"/>
	<path class="st0" d="M219.5,66.5h1.7v-12h4.9v12h1.7v-12h4.6v12h1.7V53h-6.3c0-1.9,0-5,2.8-5c0.9,0,1.7,0.4,2.2,0.7l0.6-1.6
		c-0.6-0.5-1.7-0.9-2.7-0.9c-3.1,0-4.7,2.4-4.7,5.9V53h-4.9c0-1.5,0-4.7,2.4-4.7c0.5,0,1.1,0.2,1.4,0.4l0.5-1.6
		c-0.4-0.3-1.1-0.6-1.9-0.6c-2.5,0-4.1,2.2-4.1,5.8V53H218v1.6h1.6v11.9H219.5z"/>
	<path class="st0" d="M242.3,66.8c1.5,0,2.6-0.5,3.1-0.8l-0.3-1.6c-0.6,0.3-1.3,0.7-2.5,0.7c-2.3,0-4-2.1-4-5.3c0-2.9,1.4-5.4,4-5.4
		c1.1,0,1.9,0.4,2.3,0.7l0.4-1.7c-0.4-0.3-1.5-0.7-2.7-0.7c-3.5,0-5.8,3.1-5.8,7.3C236.8,64,239,66.8,242.3,66.8z"/>
	<rect x="247.8" y="53" class="st0" width="1.7" height="13.6"/>
	<path class="st0" d="M248.6,50.6c0.7,0,1.1-0.5,1.1-1.4c0-0.8-0.4-1.4-1.1-1.4c-0.7,0-1.1,0.6-1.1,1.4
		C247.5,49.9,248,50.6,248.6,50.6z"/>
	<path class="st0" d="M252.1,63c0,2,1.1,3.9,3.3,3.9c1.6,0,2.8-1,3.4-2.1h0.1l0.2,1.7h1.6c-0.2-1-0.2-2.1-0.2-3.2V58
		c0-2.7-0.8-5.4-4.1-5.4c-1.3,0-2.6,0.4-3.5,1.1l0.4,1.4c0.8-0.6,1.8-1,2.8-1c2.6,0,2.6,2.6,2.6,3.7C254.4,57.9,252.1,59.7,252.1,63
		z M258.7,59.5v2.6c0,1.6-1.2,3.2-2.9,3.2c-1,0-2-0.7-2-2.5C253.8,59.9,256.5,59.5,258.7,59.5z"/>
	<rect x="263.8" y="46.6" class="st0" width="1.7" height="19.9"/>
	<polygon class="st0" points="276.7,66.5 278.5,66.5 278.5,49.3 283.2,49.3 283.2,47.6 272.1,47.6 272.1,49.3 276.7,49.3 	"/>
	<rect x="284.8" y="53" class="st0" width="1.7" height="13.6"/>
	<path class="st0" d="M285.7,50.6c0.7,0,1.2-0.5,1.2-1.4c0-0.8-0.4-1.4-1.1-1.4s-1.1,0.6-1.1,1.4C284.6,49.9,285,50.6,285.7,50.6z"
		/>
	<path class="st0" d="M294.6,66.8c1.5,0,2.6-0.5,3.1-0.8l-0.3-1.6c-0.6,0.3-1.4,0.7-2.5,0.7c-2.3,0-4-2.1-4-5.3c0-2.9,1.4-5.4,4-5.4
		c1.1,0,1.8,0.4,2.3,0.7l0.4-1.7c-0.4-0.3-1.5-0.7-2.7-0.7c-3.5,0-5.8,3.1-5.8,7.3C289.2,64,291.4,66.8,294.6,66.8z"/>
	<path class="st0" d="M301.9,61.3l1.1-1.4l3.9,6.7h2.1l-4.9-8l4.3-5.6h-2.1l-3.4,4.8c-0.3,0.4-0.7,1.1-1,1.5l0,0V46.6h-1.7v19.9h1.7
		V61.3z"/>
	<path class="st0" d="M315,66.8c1.8,0,2.9-0.5,3.6-0.8l-0.3-1.5c-0.7,0.3-1.6,0.7-3,0.7c-2.1,0-3.9-1.4-3.9-5.2h7.8
		c0-0.3,0-0.7,0-1.1c0-2.4-0.9-6.2-4.4-6.2c-3.1,0-5.1,3.1-5.1,7.3C309.7,64,311.7,66.8,315,66.8z M314.6,54.2
		c2.2,0,2.9,2.4,2.9,4.2h-6C311.6,56.6,312.5,54.2,314.6,54.2z"/>
	<path class="st0" d="M322.2,62.4c0,1.4,0.1,4.4,2.8,4.4c0.7,0,1.3-0.1,1.7-0.3l-0.1-1.6c-0.3,0.1-0.7,0.2-1.2,0.2
		c-1.1,0-1.5-1-1.5-2.7v-7.8h2.9V53H324v-3.2l-1.7,0.7V53h-1.8v1.6h1.8L322.2,62.4L322.2,62.4z"/>
	<rect x="329.2" y="53" class="st0" width="1.7" height="13.6"/>
	<path class="st0" d="M330,50.6c0.7,0,1.2-0.5,1.2-1.4c0-0.8-0.4-1.4-1.1-1.4s-1.2,0.6-1.2,1.4C328.9,49.9,329.4,50.6,330,50.6z"/>
	<path class="st0" d="M334.4,66.5h1.7v-8.3c0-2.4,1.5-3.9,3-3.9c2,0,2.7,2,2.7,4.2v8h1.7v-8.3c0-4.6-2.4-5.6-3.8-5.6
		c-1.8,0-3.1,1.2-3.7,2.5l0,0l-0.1-2.2h-1.6c0,1.1,0.1,2.1,0.1,3.5L334.4,66.5L334.4,66.5z"/>
	<path class="st0" d="M350.7,66.5c1.7,0,2.9-1.1,3.5-2.3l0,0v1.6c0,3.6-1.5,4.9-3.6,4.9c-1.4,0-2.5-0.5-3.2-1l-0.5,1.6
		c0.9,0.7,2.3,1.1,3.6,1.1c5.4,0,5.4-5.4,5.4-7.8v-7.9c0-1.7,0-2.8,0.1-3.7h-1.6l-0.1,2l0,0c-0.5-1.1-1.5-2.3-3.5-2.3
		c-2.5,0-4.9,2.5-4.9,7.2C346,63.7,348,66.5,350.7,66.5z M351.2,54.3c1.6,0,3,1.5,3,3.8v2.7c0,2.8-1.8,4-3.1,4
		c-2.2,0-3.4-2.3-3.4-5.1C347.8,56.4,349.2,54.3,351.2,54.3z"/>
	<path class="st0" d="M366,58.2c0.1-2.9,0.3-6.1,0.3-8.4h0.1c0.4,2.2,1,4.6,1.8,7.3l2.6,9.3h1.3L375,57c0.8-2.6,1.4-5,1.9-7.1h0.1
		c0,1.9,0.1,5.5,0.3,8.2l0.4,8.6h1.7l-1-19h-2.2l-2.9,9.7c-0.7,2.4-1.3,4.4-1.7,6.3h-0.1c-0.4-2-0.9-4-1.6-6.3l-2.8-9.7H365l-1.1,19
		h1.6L366,58.2z"/>
	<path class="st0" d="M386.9,66.8c1.7,0,2.9-0.5,3.6-0.8l-0.3-1.5c-0.7,0.3-1.6,0.7-3,0.7c-2.1,0-3.9-1.4-3.9-5.2h7.8
		c0-0.3,0-0.7,0-1.1c0-2.4-0.9-6.2-4.4-6.2c-3.1,0-5.1,3.1-5.1,7.3C381.6,64,383.6,66.8,386.9,66.8z M386.5,54.2
		c2.2,0,2.9,2.4,2.9,4.2h-6C383.5,56.6,384.4,54.2,386.5,54.2z"/>
	<path class="st0" d="M393.7,66.5h1.7v-8.3c0-2.1,1.3-3.9,2.8-3.9c1.6,0,2.4,1.7,2.4,3.8v8.4h1.7V58c0-2.1,1.3-3.6,2.7-3.6
		c1.7,0,2.5,1.7,2.5,4.4v7.8h1.7v-8.2c0-4.6-2.2-5.7-3.6-5.7c-1.8,0-2.9,1.1-3.7,2.7l0,0c-0.5-1.6-1.6-2.7-3.1-2.7
		c-1.8,0-2.9,1.2-3.5,2.5l0,0l-0.1-2.2h-1.5c0,1.1,0.1,2.1,0.1,3.5v10H393.7z"/>
	<path class="st0" d="M414.1,64.3L414.1,64.3c0.9,1.8,2.1,2.6,3.7,2.6c2.4,0,4.9-2.3,4.9-7.3c0-4.2-1.9-7-4.6-7
		c-1.8,0-3.1,0.9-3.8,2.5h-0.1v-8.5h-1.7v16.6c0,1.1,0,2.5-0.1,3.4h1.5L414.1,64.3z M414.3,58.5c0-2,1.3-4.2,3.3-4.2
		c2.2,0,3.4,2.5,3.4,5.3c0,3.2-1.2,5.5-3.4,5.5c-1.9,0-3.2-1.9-3.2-3.9L414.3,58.5L414.3,58.5z"/>
	<path class="st0" d="M429.8,66.8c1.7,0,2.9-0.5,3.6-0.8l-0.3-1.5c-0.7,0.3-1.6,0.7-3,0.7c-2,0-3.8-1.4-3.9-5.2h7.8
		c0-0.3,0-0.7,0-1.1c0-2.4-0.9-6.2-4.4-6.2c-3.1,0-5.1,3.1-5.1,7.3C424.5,64,426.5,66.8,429.8,66.8z M429.4,54.2
		c2.2,0,2.9,2.4,2.9,4.2h-6.1C426.4,56.6,427.3,54.2,429.4,54.2z"/>
	<path class="st0" d="M436.5,66.5h1.7v-7.4c0-2.3,1-4.5,2.8-4.5c0.3,0,0.4,0,0.6,0.1v-2c-0.2,0-0.3-0.1-0.5-0.1
		c-1.4,0-2.6,1.2-3.1,2.9h-0.1L438,53h-1.5c0.1,1.3,0.1,2.6,0.1,4.1v9.4H436.5z"/>
	<path class="st0" d="M447.1,58.7c-1.5-0.8-2.1-1.3-2.1-2.5c0-1.1,0.7-2,1.9-2c1,0,1.8,0.5,2.2,0.8l0.5-1.6
		c-0.6-0.4-1.5-0.8-2.6-0.8c-2.3,0-3.7,1.7-3.7,3.9c0,1.6,1,2.9,2.9,3.8c1.5,0.7,2.1,1.4,2.1,2.7c0,1.2-0.8,2.2-2.3,2.2
		c-1,0-2-0.5-2.6-0.9l-0.5,1.6c0.8,0.6,1.9,0.9,3,0.9c2.5,0,4-1.6,4-4C450,60.8,448.9,59.6,447.1,58.7z"/>
</g>
</svg>
